<svg width="217" height="337" viewBox="0 0 217 337" fill="none" xmlns="http://www.w3.org/2000/svg">
<path d="M185.83 52.7563C167.422 -2.57191 65.6939 -30.7212 28.8781 56.6389L14.3456 104.202C6.72653 135.366 10.8971 151.346 25.9716 177.972C35.66 191.562 46.3172 197.386 59.8809 209.034C27.224 226.746 11.3597 240.223 0.78186 280.863V336.191H215.864V280.863C207.144 243.978 189.705 224.564 154.827 209.034C172.608 196.079 181.526 189.023 189.705 177.972C205.206 156.617 208.113 127.497 203.269 109.055L185.83 52.7563Z" fill="black" stroke="white"/>
<path d="M188.702 247H28.345C24.9687 247 23.9999 247.971 24 250.883L31.7507 320.771V335.331H184.827V320.771L192.578 250.883C192.578 248.941 192.578 247 188.702 247Z" fill="url(#paint0_linear_7_176)"/>
<path d="M184.86 321.631H31.7842V336.191H184.86V321.631Z" fill="black"/>
<path d="M84.976 294.792C84.032 294.792 83.168 294.648 82.384 294.36C81.6 294.072 80.912 293.64 80.32 293.064C79.744 292.488 79.296 291.768 78.976 290.904C78.672 290.04 78.52 289.024 78.52 287.856C78.52 287.2 78.408 286.64 78.184 286.176C77.976 285.712 77.648 285.36 77.2 285.12L76.888 285C76.456 284.76 76.24 284.432 76.24 284.016V283.152C76.24 282.736 76.456 282.408 76.888 282.168L77.2 282.048C77.664 281.808 78 281.456 78.208 280.992C78.416 280.528 78.52 279.968 78.52 279.312C78.52 278.144 78.672 277.136 78.976 276.288C79.296 275.424 79.744 274.704 80.32 274.128C80.896 273.552 81.576 273.12 82.36 272.832C83.144 272.544 84 272.392 84.928 272.376H85.096C85.24 272.376 85.36 272.432 85.456 272.544C85.568 272.64 85.624 272.76 85.624 272.904V275.088C85.624 275.232 85.576 275.352 85.48 275.448C85.384 275.544 85.272 275.6 85.144 275.616H85.048C84.376 275.664 83.832 275.832 83.416 276.12C83 276.392 82.696 276.816 82.504 277.392C82.312 277.968 82.216 278.728 82.216 279.672C82.216 280.68 82.048 281.528 81.712 282.216C81.376 282.888 80.952 283.344 80.44 283.584C80.776 283.728 81.072 283.992 81.328 284.376C81.6 284.76 81.816 285.224 81.976 285.768C82.136 286.296 82.216 286.872 82.216 287.496C82.216 288.424 82.312 289.184 82.504 289.776C82.696 290.352 83 290.776 83.416 291.048C83.832 291.32 84.368 291.488 85.024 291.552L85.144 291.576C85.272 291.576 85.384 291.624 85.48 291.72C85.576 291.816 85.624 291.944 85.624 292.104V294.264C85.624 294.424 85.568 294.552 85.456 294.648C85.36 294.744 85.24 294.792 85.096 294.792H84.976ZM94.5854 294.792C93.6414 294.792 92.7774 294.648 91.9934 294.36C91.2094 294.072 90.5214 293.64 89.9294 293.064C89.3534 292.488 88.9054 291.768 88.5854 290.904C88.2814 290.04 88.1294 289.024 88.1294 287.856C88.1294 287.2 88.0174 286.64 87.7934 286.176C87.5854 285.712 87.2574 285.36 86.8094 285.12L86.4974 285C86.0654 284.76 85.8494 284.432 85.8494 284.016V283.152C85.8494 282.736 86.0654 282.408 86.4974 282.168L86.8094 282.048C87.2734 281.808 87.6094 281.456 87.8174 280.992C88.0254 280.528 88.1294 279.968 88.1294 279.312C88.1294 278.144 88.2814 277.136 88.5854 276.288C88.9054 275.424 89.3534 274.704 89.9294 274.128C90.5054 273.552 91.1854 273.12 91.9694 272.832C92.7534 272.544 93.6094 272.392 94.5374 272.376H94.7054C94.8494 272.376 94.9694 272.432 95.0654 272.544C95.1774 272.64 95.2334 272.76 95.2334 272.904V275.088C95.2334 275.232 95.1854 275.352 95.0894 275.448C94.9934 275.544 94.8814 275.6 94.7534 275.616H94.6574C93.9854 275.664 93.4414 275.832 93.0254 276.12C92.6094 276.392 92.3054 276.816 92.1134 277.392C91.9214 277.968 91.8254 278.728 91.8254 279.672C91.8254 280.68 91.6574 281.528 91.3214 282.216C90.9854 282.888 90.5614 283.344 90.0494 283.584C90.3854 283.728 90.6814 283.992 90.9374 284.376C91.2094 284.76 91.4254 285.224 91.5854 285.768C91.7454 286.296 91.8254 286.872 91.8254 287.496C91.8254 288.424 91.9214 289.184 92.1134 289.776C92.3054 290.352 92.6094 290.776 93.0254 291.048C93.4414 291.32 93.9774 291.488 94.6334 291.552L94.7534 291.576C94.8814 291.576 94.9934 291.624 95.0894 291.72C95.1854 291.816 95.2334 291.944 95.2334 292.104V294.264C95.2334 294.424 95.1774 294.552 95.0654 294.648C94.9694 294.744 94.8494 294.792 94.7054 294.792H94.5854ZM102.426 291C102.266 291 102.122 290.944 101.994 290.832C101.882 290.72 101.826 290.576 101.826 290.4V288.528C101.826 288.352 101.858 288.2 101.922 288.072C102.002 287.944 102.098 287.824 102.21 287.712L107.826 281.616H102.642C102.466 281.616 102.314 281.56 102.186 281.448C102.074 281.336 102.018 281.192 102.018 281.016V279.12C102.018 278.944 102.074 278.8 102.186 278.688C102.314 278.576 102.466 278.52 102.642 278.52H112.29C112.45 278.52 112.586 278.576 112.698 278.688C112.826 278.8 112.89 278.944 112.89 279.12V281.16C112.89 281.304 112.858 281.432 112.794 281.544C112.73 281.656 112.65 281.768 112.554 281.88L107.082 287.904H112.77C112.946 287.904 113.09 287.96 113.202 288.072C113.314 288.184 113.37 288.328 113.37 288.504V290.4C113.37 290.576 113.314 290.72 113.202 290.832C113.09 290.944 112.946 291 112.77 291H102.426ZM120.514 272.376C121.458 272.392 122.314 272.544 123.082 272.832C123.866 273.12 124.546 273.552 125.122 274.128C125.714 274.688 126.17 275.408 126.49 276.288C126.81 277.152 126.97 278.16 126.97 279.312C126.97 279.984 127.074 280.552 127.282 281.016C127.49 281.464 127.818 281.808 128.266 282.048L128.578 282.192C129.01 282.416 129.226 282.736 129.226 283.152V284.04C129.226 284.456 129.01 284.776 128.578 285L128.266 285.144C127.802 285.368 127.466 285.712 127.258 286.176C127.066 286.64 126.97 287.2 126.97 287.856C126.97 289.024 126.81 290.04 126.49 290.904C126.17 291.768 125.722 292.48 125.146 293.04C124.57 293.616 123.89 294.048 123.106 294.336C122.322 294.64 121.466 294.792 120.538 294.792H120.394C120.234 294.792 120.106 294.744 120.01 294.648C119.914 294.552 119.866 294.424 119.866 294.264V292.104C119.866 291.944 119.914 291.816 120.01 291.72C120.106 291.624 120.218 291.576 120.346 291.576H120.418C121.09 291.512 121.634 291.336 122.05 291.048C122.482 290.776 122.794 290.352 122.986 289.776C123.178 289.2 123.274 288.448 123.274 287.52C123.274 286.496 123.434 285.648 123.754 284.976C124.09 284.288 124.514 283.824 125.026 283.584C124.69 283.424 124.386 283.16 124.114 282.792C123.858 282.408 123.65 281.952 123.49 281.424C123.346 280.896 123.274 280.312 123.274 279.672C123.274 278.728 123.178 277.976 122.986 277.416C122.794 276.84 122.49 276.408 122.074 276.12C121.658 275.832 121.122 275.664 120.466 275.616H120.346C120.218 275.6 120.106 275.544 120.01 275.448C119.914 275.352 119.866 275.232 119.866 275.088V272.904C119.866 272.76 119.914 272.64 120.01 272.544C120.106 272.432 120.234 272.376 120.394 272.376H120.514ZM130.123 272.376C131.067 272.392 131.923 272.544 132.691 272.832C133.475 273.12 134.155 273.552 134.731 274.128C135.323 274.688 135.779 275.408 136.099 276.288C136.419 277.152 136.579 278.16 136.579 279.312C136.579 279.984 136.683 280.552 136.891 281.016C137.099 281.464 137.427 281.808 137.875 282.048L138.187 282.192C138.619 282.416 138.835 282.736 138.835 283.152V284.04C138.835 284.456 138.619 284.776 138.187 285L137.875 285.144C137.411 285.368 137.075 285.712 136.867 286.176C136.675 286.64 136.579 287.2 136.579 287.856C136.579 289.024 136.419 290.04 136.099 290.904C135.779 291.768 135.331 292.48 134.755 293.04C134.179 293.616 133.499 294.048 132.715 294.336C131.931 294.64 131.075 294.792 130.147 294.792H130.003C129.843 294.792 129.715 294.744 129.619 294.648C129.523 294.552 129.475 294.424 129.475 294.264V292.104C129.475 291.944 129.523 291.816 129.619 291.72C129.715 291.624 129.827 291.576 129.955 291.576H130.027C130.699 291.512 131.243 291.336 131.659 291.048C132.091 290.776 132.403 290.352 132.595 289.776C132.787 289.2 132.883 288.448 132.883 287.52C132.883 286.496 133.043 285.648 133.363 284.976C133.699 284.288 134.123 283.824 134.635 283.584C134.299 283.424 133.995 283.16 133.723 282.792C133.467 282.408 133.259 281.952 133.099 281.424C132.955 280.896 132.883 280.312 132.883 279.672C132.883 278.728 132.787 277.976 132.595 277.416C132.403 276.84 132.099 276.408 131.683 276.12C131.267 275.832 130.731 275.664 130.075 275.616H129.955C129.827 275.6 129.715 275.544 129.619 275.448C129.523 275.352 129.475 275.232 129.475 275.088V272.904C129.475 272.76 129.523 272.64 129.619 272.544C129.715 272.432 129.843 272.376 130.003 272.376H130.123Z" fill="black"/>
<path d="M111.229 216.799H105.416V247.86H111.229V216.799Z" fill="white"/>
<path d="M130.606 203.21C155.796 177.002 170.329 167.295 177.11 140.116H169.36L174.204 106.143L170.329 95.4655H45.3486L42.4421 105.172L40.5044 140.116C42.4421 164.383 64.7253 180.884 86.0397 203.21H130.606Z" fill="white"/>
<path d="M42.4419 106.143H45.3484L47.2859 140.116H40.504C37.5975 140.116 37.5976 111.967 42.4419 106.143Z" fill="#FFBA91"/>
<path d="M174.203 106.143H171.297L170.328 140.116H177.11C180.016 140.116 179.048 111.967 174.203 106.143Z" fill="#FFBA91"/>
<path d="M130.606 189.62C114.135 196.415 101.54 195.444 85.0703 189.62C41.4726 169.236 45.3478 136.234 45.348 95.4655C68.6001 43.0495 144.169 38.1965 170.328 94.4949C172.266 123.615 179.048 168.266 130.606 189.62Z" fill="#FECCA7"/>
<path d="M86.0396 203.21V189.62C104.108 194.862 113.718 194.806 130.606 189.62V203.21L111.229 216.799H105.416L86.0396 203.21Z" fill="#FFBA91"/>
<path d="M114.136 144.97V129.439C114.136 124.586 102.51 124.586 102.51 129.439V144.97C102.51 148.852 114.136 148.852 114.136 144.97Z" fill="#FFBA91"/>
<path d="M91.8522 162.442H124.793C124.793 181.855 91.8522 179.914 91.8522 162.442Z" fill="#FF4C60"/>
<path d="M48.8772 119.76C50.8834 126.203 52.0478 128.984 53.9418 131.811C57.5473 137.251 62.8925 139.682 72.6008 140.305C79.5173 140.761 86.2654 139.105 90.8389 135.823C93.6869 133.786 96.3525 129.714 99.9019 122.009C100.631 120.414 101.417 118.681 101.642 118.134C102.231 116.66 103.606 114.259 104.125 113.788C105.64 112.39 108.979 111.843 111.462 112.572C112.486 112.861 113.847 113.682 114.226 114.244C114.899 115.217 115.699 116.812 117.495 120.718C121.24 128.878 124.004 133.376 126.501 135.412C129.195 137.616 133.025 139.151 137.893 139.971C139.914 140.321 146.535 140.351 148.836 140.047C153.55 139.394 157.31 138.072 160.074 136.066C161.308 135.169 163.328 132.905 164.311 131.309C166.106 128.422 167.187 125.763 169.179 119.426C170.89 113.983 171.43 110.04 170.881 107.193C170.486 105.143 171.464 102.619 169.972 101.553C166.158 98.8287 156.924 99.8636 146.662 100.051C139.002 100.187 137.023 100.324 132.632 100.962C127.834 101.677 121.577 102.923 118.112 103.85C113.805 105.02 113.412 105.081 109.905 105.172C106.033 105.263 104.63 105.096 100.772 104.093C94.5286 102.467 87.0931 101.099 80.7939 100.431C79.3489 100.263 75.8696 100.142 70.4122 100.051C59.8877 99.8737 50.2024 98.1059 46.6498 100.962C45.4548 101.923 44.7016 103.286 44.4223 105.204C43.9899 108.174 46.9203 113.553 48.8772 119.76ZM80.5133 103.455C85.6621 104.123 89.6044 105.157 92.6908 106.661C93.1678 106.889 93.5326 107.132 93.4905 107.193C93.4344 107.284 96.114 110.187 97.0539 111.038L97.5309 111.463L97.4467 112.785C97.1802 117.253 94.4164 125.459 91.7368 129.82C90.5583 131.72 89.2676 133.087 87.7946 133.984C83.712 136.476 77.8478 137.737 72.4465 137.297C66.1333 136.765 62.668 135.23 59.1327 131.416C56.0883 128.118 54.9239 125.079 53.2123 115.855C52.6792 112.922 52.5529 111.965 52.5389 110.536C52.5248 109.001 52.5669 108.697 52.8615 107.998C53.8576 105.597 57.0703 103.971 61.9245 103.409C64.2534 103.136 64.4919 103.12 71.6749 103.166C77.006 103.196 79.0543 103.257 80.5133 103.455ZM156.693 103.455C159.975 103.971 162.501 104.959 163.89 106.281C164.296 106.676 164.717 107.284 164.998 107.922C165.419 108.849 165.461 109.032 165.447 110.384C165.433 112.785 163.777 121.477 162.711 124.775C161.813 127.556 160.747 129.41 159.021 131.279C155.009 135.579 150.379 137.327 143.014 137.342C136.518 137.357 130.907 135.412 127.918 132.115C125.099 129.015 122.012 121.645 120.792 115.095C120.539 113.712 120.286 111.19 120.427 111.539C120.469 111.63 120.904 111.296 121.395 110.779C121.886 110.263 122.91 109.199 123.668 108.409C124.425 107.618 125.028 106.904 125.014 106.843C125 106.767 125.042 106.752 125.127 106.813C125.197 106.859 125.267 106.843 125.267 106.752C125.267 106.296 130.43 104.625 133.685 104.017C138.034 103.212 139.815 103.105 147.994 103.166C153.676 103.196 155.402 103.257 156.693 103.455Z" fill="black"/>
<path d="M92.821 95.4654C94.7587 97.4067 93.2102 101.29 87.008 97.4067C79.2573 92.5534 69.5689 92.5534 59.8805 98.3774C56.9743 101.289 53.0987 98.3774 55.0363 95.4654C67.6311 85.7588 83.1326 86.7294 92.821 95.4654Z" fill="black"/>
<path d="M161.609 95.4654C163.546 97.4068 161.998 102.261 155.796 98.3775C148.045 93.5241 139.325 92.5535 128.668 98.3775C124.793 100.495 121.365 99.2221 123.302 96.3101C131.575 86.7295 151.92 86.7295 161.609 95.4654Z" fill="black"/>
<path d="M105.416 88.6708C87.9519 87.9957 79.5201 83.0008 67.6316 67.3161C78.2888 60.5215 86.0395 56.6388 99.6032 54.6975C100.578 54.6975 102.739 53.7783 102.855 53.768C129.597 51.3972 157.096 66.5372 166.65 86.6391C150.18 88.5804 133.513 83.8175 125.762 77.0228L138.357 89.6415C124.163 88.2194 101.094 70.1855 102.855 53.768C102.739 53.7783 100.578 54.6975 99.6032 54.6975C97.7157 71.2847 99.0796 79.3917 105.416 88.6708Z" fill="black"/>
<path d="M99.6032 107.114C82.6344 101.881 71.7436 100.908 50.1925 102.26C48.1513 113.806 50.5358 121.004 56.9744 134.292C71.104 139.773 78.2937 140.581 88.946 135.263C97.8198 125.296 100.431 119.195 99.6032 107.114Z" fill="#FFE0CB"/>
<path d="M99.6032 107.114C82.6344 101.881 71.7436 100.908 50.1925 102.26C48.1513 113.806 50.5358 121.004 56.9744 134.292C71.104 139.773 78.2937 140.581 88.946 135.263C97.8198 125.296 100.431 119.195 99.6032 107.114Z" fill="#FFE0CB"/>
<path d="M118.155 106.692C135.124 101.46 146.015 100.486 167.566 101.839C169.607 113.385 167.223 120.583 160.784 133.871C146.655 139.352 139.465 140.16 128.813 134.842C119.939 124.875 117.328 118.773 118.155 106.692Z" fill="#FFE0CB"/>
<path d="M118.155 106.692C135.124 101.46 146.015 100.486 167.566 101.839C169.607 113.385 167.223 120.583 160.784 133.871C146.655 139.352 139.465 140.16 128.813 134.842C119.939 124.875 117.328 118.773 118.155 106.692Z" fill="#FFE0CB"/>
<ellipse cx="74.4136" cy="113.908" rx="8.71953" ry="8.736" fill="black"/>
<ellipse cx="142.232" cy="113.908" rx="8.71953" ry="8.736" fill="black"/>
<defs>
<linearGradient id="paint0_linear_7_176" x1="35.1472" y1="291.438" x2="192.587" y2="291.438" gradientUnits="userSpaceOnUse">
<stop stop-color="white"/>
<stop offset="1" stop-color="white"/>
</linearGradient>
</defs>
</svg>
